# xmcd
#
# Track frame offsets:
#	150
#	17455
#	42832
#	55305
#	86600
#	102202
#	122932
#	149062
#	176407
#
# Disc length: 2636 seconds
#
# Revision: 0
# Processed by: cddbd v1.4PL0 Copyright (c) Steve Scherf et al.
# Submitted via: audiograbber 1.81.01
#
DISCID=760a4a09
DTITLE=Backstreet Men ft Ana Popovic and Penny Leen - That's It!
DYEAR=1900
DGENRE=Blues
TTITLE0=Sugar Sweet
TTITLE1=Big Town Playboy
TTITLE2=Learn To Treat Me Right
TTITLE3=Send Me Someone To Love
TTITLE4=Cut You Loose
TTITLE5=He Move's Me
TTITLE6=Breaking Up Somebody's Home
TTITLE7=Jump For Joy
TTITLE8=I Believe I'm In Love
EXTD=
EXTT0=
EXTT1=
EXTT2=
EXTT3=
EXTT4=
EXTT5=
EXTT6=
EXTT7=
EXTT8=
PLAYORDER=
